<mxfile host="app.diagrams.net" modified="2023-09-11T15:36:37.848Z" agent="Mozilla/5.0 (X11; Ubuntu; Linux x86_64; rv:109.0) Gecko/20100101 Firefox/117.0" etag="_YVWTUHOnR6mzJfZTizB" version="21.7.4" type="device">
  <diagram name="Page-1" id="LFEiFIpBuk2tyn7rsIto">
    <mxGraphModel dx="1144" dy="573" grid="1" gridSize="10" guides="1" tooltips="1" connect="1" arrows="1" fold="1" page="1" pageScale="1" pageWidth="850" pageHeight="1100" math="0" shadow="0">
      <root>
        <mxCell id="0" />
        <mxCell id="1" parent="0" />
        <mxCell id="I51b9D73y8hMwHZjASQl-16" value="Kubernetes Cluster" style="rounded=1;whiteSpace=wrap;html=1;labelPosition=center;verticalLabelPosition=bottom;align=center;verticalAlign=top;dashed=1;labelBackgroundColor=default;" parent="1" vertex="1">
          <mxGeometry x="190" y="160" width="510" height="220" as="geometry" />
        </mxCell>
        <mxCell id="w-UQ-_cDdm1B_oGXnY8y-6" style="edgeStyle=orthogonalEdgeStyle;rounded=0;orthogonalLoop=1;jettySize=auto;html=1;entryX=0.5;entryY=0;entryDx=0;entryDy=0;exitX=0.5;exitY=1;exitDx=0;exitDy=0;strokeWidth=2;" parent="1" source="w-UQ-_cDdm1B_oGXnY8y-7" target="I51b9D73y8hMwHZjASQl-19" edge="1">
          <mxGeometry relative="1" as="geometry">
            <mxPoint x="390" y="110" as="sourcePoint" />
          </mxGeometry>
        </mxCell>
        <mxCell id="w-UQ-_cDdm1B_oGXnY8y-14" style="edgeStyle=orthogonalEdgeStyle;rounded=0;orthogonalLoop=1;jettySize=auto;html=1;entryX=0.5;entryY=0;entryDx=0;entryDy=0;exitX=0.349;exitY=0.978;exitDx=0;exitDy=0;strokeWidth=2;exitPerimeter=0;" parent="1" source="I51b9D73y8hMwHZjASQl-19" target="w-UQ-_cDdm1B_oGXnY8y-10" edge="1">
          <mxGeometry relative="1" as="geometry">
            <Array as="points">
              <mxPoint x="377" y="230" />
              <mxPoint x="350" y="230" />
              <mxPoint x="350" y="250" />
              <mxPoint x="265" y="250" />
            </Array>
          </mxGeometry>
        </mxCell>
        <mxCell id="w-UQ-_cDdm1B_oGXnY8y-15" style="edgeStyle=orthogonalEdgeStyle;rounded=0;orthogonalLoop=1;jettySize=auto;html=1;exitX=0.555;exitY=0.994;exitDx=0;exitDy=0;entryX=0.5;entryY=0;entryDx=0;entryDy=0;strokeWidth=2;exitPerimeter=0;" parent="1" source="I51b9D73y8hMwHZjASQl-19" target="w-UQ-_cDdm1B_oGXnY8y-11" edge="1">
          <mxGeometry relative="1" as="geometry">
            <Array as="points">
              <mxPoint x="470" y="250" />
              <mxPoint x="395" y="250" />
            </Array>
          </mxGeometry>
        </mxCell>
        <mxCell id="I51b9D73y8hMwHZjASQl-19" value="Ingress&lt;br&gt;&lt;div align=&quot;left&quot;&gt;&lt;font style=&quot;font-size: 10px;&quot;&gt;&lt;i&gt;taskapp.acme.com&lt;span style=&quot;white-space: pre;&quot;&gt;&#x9;&lt;/span&gt;&lt;/i&gt;api.taskapp.acme.com&lt;/font&gt;&lt;/div&gt;" style="rounded=0;whiteSpace=wrap;html=1;horizontal=1;verticalAlign=middle;" parent="1" vertex="1">
          <mxGeometry x="220" y="170" width="450" height="60" as="geometry" />
        </mxCell>
        <mxCell id="w-UQ-_cDdm1B_oGXnY8y-3" value="&lt;div&gt;MongoDB&lt;/div&gt;&lt;div&gt;PVC&lt;/div&gt;" style="shape=datastore;whiteSpace=wrap;html=1;" parent="1" vertex="1">
          <mxGeometry x="610" y="320" width="60" height="50" as="geometry" />
        </mxCell>
        <mxCell id="w-UQ-_cDdm1B_oGXnY8y-7" value="Traffic" style="text;html=1;strokeColor=none;fillColor=none;align=center;verticalAlign=middle;whiteSpace=wrap;rounded=0;labelBackgroundColor=default;" parent="1" vertex="1">
          <mxGeometry x="415" y="120" width="60" height="20" as="geometry" />
        </mxCell>
        <mxCell id="w-UQ-_cDdm1B_oGXnY8y-27" style="edgeStyle=orthogonalEdgeStyle;rounded=0;orthogonalLoop=1;jettySize=auto;html=1;exitX=0.5;exitY=1;exitDx=0;exitDy=0;entryX=0.425;entryY=0.01;entryDx=0;entryDy=0;entryPerimeter=0;dashed=1;" parent="1" source="w-UQ-_cDdm1B_oGXnY8y-10" target="w-UQ-_cDdm1B_oGXnY8y-16" edge="1">
          <mxGeometry relative="1" as="geometry" />
        </mxCell>
        <mxCell id="w-UQ-_cDdm1B_oGXnY8y-29" style="edgeStyle=orthogonalEdgeStyle;rounded=0;orthogonalLoop=1;jettySize=auto;html=1;exitX=0.5;exitY=1;exitDx=0;exitDy=0;entryX=0.5;entryY=0;entryDx=0;entryDy=0;dashed=1;" parent="1" source="w-UQ-_cDdm1B_oGXnY8y-10" target="w-UQ-_cDdm1B_oGXnY8y-17" edge="1">
          <mxGeometry relative="1" as="geometry">
            <Array as="points">
              <mxPoint x="265" y="325" />
              <mxPoint x="290" y="325" />
            </Array>
          </mxGeometry>
        </mxCell>
        <mxCell id="w-UQ-_cDdm1B_oGXnY8y-10" value="&lt;div&gt;Frontend&lt;/div&gt;&lt;div&gt;service&lt;br&gt;&lt;/div&gt;" style="rounded=0;whiteSpace=wrap;html=1;" parent="1" vertex="1">
          <mxGeometry x="220" y="270" width="90" height="35" as="geometry" />
        </mxCell>
        <mxCell id="w-UQ-_cDdm1B_oGXnY8y-30" style="edgeStyle=orthogonalEdgeStyle;rounded=0;orthogonalLoop=1;jettySize=auto;html=1;exitX=0.5;exitY=1;exitDx=0;exitDy=0;entryX=0.426;entryY=0.021;entryDx=0;entryDy=0;entryPerimeter=0;dashed=1;" parent="1" source="w-UQ-_cDdm1B_oGXnY8y-11" target="w-UQ-_cDdm1B_oGXnY8y-18" edge="1">
          <mxGeometry relative="1" as="geometry" />
        </mxCell>
        <mxCell id="w-UQ-_cDdm1B_oGXnY8y-31" style="edgeStyle=orthogonalEdgeStyle;rounded=0;orthogonalLoop=1;jettySize=auto;html=1;exitX=0.5;exitY=1;exitDx=0;exitDy=0;entryX=0.5;entryY=0;entryDx=0;entryDy=0;dashed=1;" parent="1" source="w-UQ-_cDdm1B_oGXnY8y-11" target="w-UQ-_cDdm1B_oGXnY8y-19" edge="1">
          <mxGeometry relative="1" as="geometry">
            <Array as="points">
              <mxPoint x="425" y="325" />
              <mxPoint x="450" y="325" />
            </Array>
          </mxGeometry>
        </mxCell>
        <mxCell id="w-UQ-_cDdm1B_oGXnY8y-11" value="&lt;div&gt;Backend&lt;/div&gt;&lt;div&gt;service&lt;br&gt;&lt;/div&gt;" style="rounded=0;whiteSpace=wrap;html=1;" parent="1" vertex="1">
          <mxGeometry x="350" y="270" width="90" height="35" as="geometry" />
        </mxCell>
        <mxCell id="w-UQ-_cDdm1B_oGXnY8y-38" style="edgeStyle=orthogonalEdgeStyle;rounded=0;orthogonalLoop=1;jettySize=auto;html=1;exitX=0.5;exitY=1;exitDx=0;exitDy=0;entryX=0.5;entryY=0;entryDx=0;entryDy=0;dashed=1;" parent="1" source="w-UQ-_cDdm1B_oGXnY8y-12" target="w-UQ-_cDdm1B_oGXnY8y-20" edge="1">
          <mxGeometry relative="1" as="geometry">
            <Array as="points">
              <mxPoint x="525" y="324" />
              <mxPoint x="500" y="324" />
            </Array>
          </mxGeometry>
        </mxCell>
        <mxCell id="w-UQ-_cDdm1B_oGXnY8y-39" style="edgeStyle=orthogonalEdgeStyle;rounded=0;orthogonalLoop=1;jettySize=auto;html=1;exitX=0.5;exitY=1;exitDx=0;exitDy=0;entryX=0.5;entryY=0;entryDx=0;entryDy=0;dashed=1;" parent="1" source="w-UQ-_cDdm1B_oGXnY8y-12" target="w-UQ-_cDdm1B_oGXnY8y-21" edge="1">
          <mxGeometry relative="1" as="geometry">
            <Array as="points">
              <mxPoint x="525" y="324" />
              <mxPoint x="550" y="324" />
            </Array>
          </mxGeometry>
        </mxCell>
        <mxCell id="w-UQ-_cDdm1B_oGXnY8y-12" value="&lt;div&gt;MongoDB&lt;/div&gt;&lt;div&gt;service&lt;br&gt;&lt;/div&gt;" style="rounded=0;whiteSpace=wrap;html=1;" parent="1" vertex="1">
          <mxGeometry x="480" y="270" width="90" height="35" as="geometry" />
        </mxCell>
        <mxCell id="w-UQ-_cDdm1B_oGXnY8y-16" value="Pod" style="rounded=0;whiteSpace=wrap;html=1;" parent="1" vertex="1">
          <mxGeometry x="220" y="335" width="40" height="35" as="geometry" />
        </mxCell>
        <mxCell id="w-UQ-_cDdm1B_oGXnY8y-35" style="edgeStyle=orthogonalEdgeStyle;rounded=0;orthogonalLoop=1;jettySize=auto;html=1;exitX=1;exitY=0.5;exitDx=0;exitDy=0;entryX=0;entryY=0.5;entryDx=0;entryDy=0;dashed=1;startArrow=classic;startFill=1;" parent="1" source="w-UQ-_cDdm1B_oGXnY8y-17" target="w-UQ-_cDdm1B_oGXnY8y-18" edge="1">
          <mxGeometry relative="1" as="geometry" />
        </mxCell>
        <mxCell id="w-UQ-_cDdm1B_oGXnY8y-17" value="Pod" style="rounded=0;whiteSpace=wrap;html=1;" parent="1" vertex="1">
          <mxGeometry x="270" y="335" width="40" height="35" as="geometry" />
        </mxCell>
        <mxCell id="w-UQ-_cDdm1B_oGXnY8y-18" value="Pod" style="rounded=0;whiteSpace=wrap;html=1;" parent="1" vertex="1">
          <mxGeometry x="350" y="335" width="40" height="35" as="geometry" />
        </mxCell>
        <mxCell id="w-UQ-_cDdm1B_oGXnY8y-36" style="edgeStyle=orthogonalEdgeStyle;rounded=0;orthogonalLoop=1;jettySize=auto;html=1;exitX=1;exitY=0.5;exitDx=0;exitDy=0;entryX=0;entryY=0.5;entryDx=0;entryDy=0;dashed=1;startArrow=classic;startFill=1;" parent="1" source="w-UQ-_cDdm1B_oGXnY8y-19" target="w-UQ-_cDdm1B_oGXnY8y-20" edge="1">
          <mxGeometry relative="1" as="geometry" />
        </mxCell>
        <mxCell id="w-UQ-_cDdm1B_oGXnY8y-19" value="Pod" style="rounded=0;whiteSpace=wrap;html=1;" parent="1" vertex="1">
          <mxGeometry x="400" y="335" width="40" height="35" as="geometry" />
        </mxCell>
        <mxCell id="w-UQ-_cDdm1B_oGXnY8y-20" value="Pod" style="rounded=0;whiteSpace=wrap;html=1;" parent="1" vertex="1">
          <mxGeometry x="480" y="335" width="40" height="35" as="geometry" />
        </mxCell>
        <mxCell id="w-UQ-_cDdm1B_oGXnY8y-23" style="edgeStyle=orthogonalEdgeStyle;rounded=0;orthogonalLoop=1;jettySize=auto;html=1;exitX=1;exitY=0.5;exitDx=0;exitDy=0;entryX=-0.039;entryY=0.667;entryDx=0;entryDy=0;entryPerimeter=0;dashed=1;startArrow=classic;startFill=1;" parent="1" source="w-UQ-_cDdm1B_oGXnY8y-21" target="w-UQ-_cDdm1B_oGXnY8y-3" edge="1">
          <mxGeometry relative="1" as="geometry" />
        </mxCell>
        <mxCell id="w-UQ-_cDdm1B_oGXnY8y-21" value="Pod" style="rounded=0;whiteSpace=wrap;html=1;" parent="1" vertex="1">
          <mxGeometry x="530" y="335" width="40" height="35" as="geometry" />
        </mxCell>
        <mxCell id="w-UQ-_cDdm1B_oGXnY8y-37" value="" style="shape=actor;whiteSpace=wrap;html=1;" parent="1" vertex="1">
          <mxGeometry x="432.5" y="90" width="25" height="30" as="geometry" />
        </mxCell>
      </root>
    </mxGraphModel>
  </diagram>
</mxfile>
